<svg width="63" height="45" viewBox="0 0 63 45" fill="none" xmlns="http://www.w3.org/2000/svg">
<path fill-rule="evenodd" clip-rule="evenodd" d="M33.7686 0C34.7724 2.00202 35.9098 8.38056 35.4079 10.8831C33.7434 11.7793 31.2408 13.8279 30.7986 17.797C30.5198 20.2996 30.9266 21.7662 31.6948 24.0708C29.3526 30.0769 23.1061 42.7641 10.1792 42.7641C7.66974 42.7641 1.60631 40.9716 0.325944 36.2343C-0.00865751 34.5659 -0.314288 31.0313 0.642967 28.5288C1.64679 30.0303 4.9594 32.633 10.1792 31.0313C16.7039 29.0293 22.2248 25.0253 27.7458 17.0172C32.1625 10.6107 33.434 2.66936 33.7686 0ZM38.2407 11.0111C35.0691 12.3458 31.5463 17.0172 38.7415 27.5278C40.9115 30.6977 46.854 36.9373 53.2641 36.5369C55.6011 36.2032 59.6742 34.2346 57.2704 29.0293C59.2736 29.5298 63.1797 31.8321 62.7791 37.0374C62.2895 43.3975 57.1225 43.91 55.8497 44.0363C55.8204 44.0392 55.7931 44.0419 55.768 44.0445C53.2641 44.3005 40.941 41.4491 34.2344 27.5278C27.7242 14.0142 36.2378 11.5116 38.2407 11.0111Z" fill="white"/>
</svg>
